<svg xmlns="http://www.w3.org/2000/svg" viewBox="0 0 260.2 70.8"><path d="M.8 57.9v-7.8h1.1v7.8H.8zm3.9-5.6v1c.5-.7 1.1-1.1 2-1.1.7 0 1.2.2 1.7.7.4.4.6 1 .6 1.7V58H8v-3.2c0-.5-.1-.9-.4-1.2-.3-.3-.6-.5-1.1-.5-.5 0-.9.2-1.2.6-.3.3-.5.8-.5 1.4V58H3.7v-5.7h1zm5.5 5l.4-.8c.7.5 1.5.7 2.4.7.4 0 .8-.1 1.1-.2.3-.1.4-.3.4-.6v-.3c0-.1-.1-.1-.2-.2s-.2-.1-.2-.1c-.1 0-.2-.1-.4-.1s-.3-.1-.4-.1c-.1 0-.3 0-.5-.1-.3 0-.5-.1-.7-.1-.2 0-.4-.1-.6-.2-.2-.1-.4-.2-.5-.3-.1-.1-.2-.2-.3-.4-.1-.2-.1-.4-.1-.6 0-.5.2-.9.6-1.3.4-.3 1-.5 1.8-.5s1.6.2 2.3.5l-.3.8c-.7-.3-1.4-.5-2-.5-.4 0-.8.1-1 .2-.2.1-.4.3-.4.6s.1.4.3.5c.2.1.6.2 1.2.3.3.1.6.1.8.2.2 0 .4.1.7.2.2.1.4.2.5.3.1.1.2.3.3.4.1.2.1.4.1.6 0 .6-.2 1-.7 1.3-.5.3-1.1.5-1.8.5-1.2.1-2.1-.2-2.8-.7zm5.8-5h1v-2h1v2h2v.9h-1.9v2.9c0 .4.1.7.2.8.2.2.4.2.8.2s.7-.1 1-.2v.9c-.4.2-.8.2-1.3.2-.6 0-1.1-.2-1.4-.5s-.4-.7-.4-1.3v-3.1h-1v-.8zm4.9-1.6c0-.2.1-.4.2-.5.1-.1.3-.2.5-.2s.4.1.5.2c.1.1.2.3.2.5s-.1.4-.2.5c-.1.1-.3.2-.5.2s-.4-.1-.5-.2c-.1-.2-.2-.3-.2-.5zm.2 7.2v-5.7h1.1v5.7h-1.1zm2.2-5.6h1v-2h1v2h1.9v.9h-1.9v2.9c0 .4.1.7.2.8.2.2.4.2.8.2s.7-.1 1-.2v.9c-.4.2-.8.2-1.3.2-.6 0-1.1-.2-1.4-.5s-.5-.8-.5-1.4V53h-1v-.7zm5 0h1.1v3.2c0 .5.1.9.4 1.2.3.3.6.5 1.1.5.5 0 .9-.2 1.2-.5.3-.4.5-.8.5-1.4v-3h1.1V58h-1v-1c-.5.7-1.2 1.1-2.1 1.1-.7 0-1.2-.2-1.6-.7-.4-.5-.6-1.1-.6-1.8v-3.3zm6.5 0h1v-2h1v2h1.9v.9h-1.9v2.9c0 .4.1.7.2.8.2.2.4.2.8.2s.7-.1 1-.2v.9c-.4.2-.8.2-1.3.2-.6 0-1.1-.2-1.4-.5-.3-.3-.5-.8-.5-1.4V53h-1v-.7zm8.1.7c.5-.6 1.2-.8 2-.8.9 0 1.6.3 2.1 1v-3.5h1v8.2h-1.1V57c-.5.7-1.2 1.1-2.1 1.1-.8 0-1.4-.3-2-.8-.5-.6-.8-1.3-.8-2.1.1-.9.3-1.6.9-2.2zm.8 3.5c.4.4.8.6 1.3.6.6 0 1-.2 1.4-.6.4-.4.6-.9.6-1.4s-.2-1-.6-1.4c-.4-.4-.8-.6-1.4-.6-.5 0-1 .2-1.4.6-.4.4-.5.9-.5 1.4s.2 1.1.6 1.4zm6.5-3.5c.6-.6 1.3-.8 2.2-.8.8 0 1.5.3 2.1.8.5.5.8 1.2.8 2v.5h-4.8c.1.5.3.9.6 1.3.4.3.8.5 1.3.5.4 0 .7-.1 1-.3.3-.2.6-.4.7-.7l.8.4c-.2.4-.5.8-1 1-.5.3-1 .4-1.6.4-.9 0-1.6-.3-2.2-.8-.6-.6-.8-1.3-.8-2.1 0-1 .3-1.7.9-2.2zm.2 1.7h3.8c-.1-.5-.3-.9-.6-1.2-.3-.3-.8-.5-1.3-.5s-.9.2-1.3.5c-.3.3-.6.7-.6 1.2zm8.9-4.6h5.3v.9h-4.3v2.5h4v.9h-4v3.4h-1.1v-7.7zm6 5c0-.9.3-1.6.9-2.1.6-.6 1.3-.8 2.2-.8.9 0 1.6.3 2.2.8.6.6.9 1.3.9 2.1 0 .9-.3 1.6-.9 2.1-.6.6-1.3.8-2.2.8-.9 0-1.6-.3-2.2-.8-.6-.5-.9-1.2-.9-2.1zm1 0c0 .6.2 1 .6 1.4.4.4.8.6 1.4.6.6 0 1-.2 1.4-.6.4-.4.6-.9.6-1.4 0-.6-.2-1.1-.6-1.4s-.8-.6-1.4-.6c-.6 0-1 .2-1.4.6-.4.4-.6.8-.6 1.4zm6.4 2.8v-5.7h1v.9c.4-.6 1-1 1.8-1 .2 0 .5 0 .7.1v1c-.3-.1-.5-.1-.8-.1-.5 0-.9.2-1.2.5-.3.3-.5.8-.5 1.3v3h-1zm4.6 0v-5.7h1v.9c.2-.3.5-.5.8-.7.3-.2.7-.3 1.1-.3.4 0 .8.1 1.1.3.3.2.6.5.7.8.2-.3.5-.6.9-.8.4-.2.8-.3 1.2-.3.7 0 1.2.2 1.6.6.4.4.6 1 .6 1.6v3.5h-1.1v-3.3c0-.4-.1-.8-.4-1.1-.3-.3-.6-.4-1-.4-.5 0-.8.2-1.1.5-.3.3-.4.8-.4 1.3v3h-1.1v-3.3c0-.5-.1-.9-.4-1.2-.2-.3-.6-.4-1-.4-.5 0-.8.2-1.1.5-.3.3-.5.8-.5 1.3v3h-.9zm10.3-2.8c0-.9.3-1.6.8-2.1.5-.6 1.2-.8 2-.8.9 0 1.6.4 2.1 1.1v-1h1V58h-1v-1c-.5.7-1.2 1.1-2.1 1.1-.8 0-1.5-.3-2-.8-.5-.6-.8-1.3-.8-2.2zm1.1 0c0 .6.2 1.1.6 1.4.4.4.8.6 1.4.6.5 0 1-.2 1.4-.6.4-.4.6-.9.6-1.5s-.2-1-.5-1.4c-.4-.4-.8-.6-1.4-.6-.6 0-1 .2-1.4.6-.5.5-.7.9-.7 1.5zm6-2.8h1v-2h1v2h1.9v.9h-1.9v2.9c0 .4.1.7.2.8.2.2.4.2.8.2s.7-.1 1-.2v.9c-.4.2-.8.2-1.3.2-.6 0-1.1-.2-1.4-.5s-.5-.8-.5-1.4V53h-1v-.7zm4.9-1.6c0-.2.1-.4.2-.5.1-.1.3-.2.5-.2s.4.1.5.2c.1.1.2.3.2.5s-.1.4-.2.5c-.1.1-.3.2-.5.2s-.4-.1-.5-.2c-.2-.2-.2-.3-.2-.5zm.2 7.2v-5.7h1.1v5.7h-1.1zm2.4-2.8c0-.9.3-1.6.9-2.1.6-.6 1.3-.8 2.2-.8.9 0 1.6.3 2.2.8.6.6.9 1.3.9 2.1 0 .9-.3 1.6-.9 2.1-.6.6-1.3.8-2.2.8-.9 0-1.6-.3-2.2-.8-.7-.5-.9-1.2-.9-2.1zm1 0c0 .6.2 1 .6 1.4.4.4.8.6 1.4.6.6 0 1-.2 1.4-.6.4-.4.6-.9.6-1.4 0-.6-.2-1.1-.6-1.4s-.8-.6-1.4-.6c-.6 0-1 .2-1.4.6-.4.4-.6.8-.6 1.4zm7.3-2.8v1c.5-.7 1.1-1.1 2-1.1.7 0 1.2.2 1.7.7.4.4.6 1 .6 1.7V58h-1.1v-3.2c0-.5-.1-.9-.4-1.2-.3-.3-.6-.5-1.1-.5-.5 0-.9.2-1.2.6-.3.4-.5.8-.5 1.4V58h-1.1v-5.7h1.1zm8.5 3.8c.8.7 1.8 1 3 1 .6 0 1.1-.1 1.5-.4.4-.2.6-.6.6-1 0-.2 0-.4-.1-.5-.1-.1-.2-.3-.3-.3-.1-.1-.3-.2-.5-.2-.2-.1-.4-.1-.6-.1-.2 0-.4-.1-.7-.1-.3 0-.6-.1-.8-.1s-.5-.1-.8-.2c-.3-.1-.5-.2-.7-.4-.2-.1-.3-.3-.5-.6-.1-.3-.2-.5-.2-.9 0-.7.3-1.3.8-1.7.6-.4 1.3-.6 2.3-.6 1 0 2 .2 2.9.7l-.4.8c-.8-.4-1.7-.6-2.5-.6-.6 0-1.1.1-1.5.3-.3.2-.5.5-.5.9 0 .2.1.4.2.6.1.2.3.3.5.4.2.1.4.2.6.2.2 0 .5.1.8.1.3 0 .5.1.6.1.1 0 .3.1.6.1.3.1.5.1.6.2.1.1.3.1.5.3.2.1.3.2.4.4.1.1.2.3.3.5.1.2.1.4.1.7 0 .8-.3 1.4-.9 1.8-.6.4-1.4.6-2.3.6-.7 0-1.3-.1-1.9-.3-.6-.2-1.1-.5-1.5-.8l.4-.9zm7.4-3.8h1.1v3.2c0 .5.1.9.4 1.2s.6.5 1.1.5c.5 0 .9-.2 1.2-.5.3-.4.5-.8.5-1.4v-3h1.1V58h-1v-1c-.5.7-1.2 1.1-2.1 1.1-.7 0-1.2-.2-1.6-.7-.4-.5-.6-1.1-.6-1.8v-3.3zm7 0h1.1v1c.5-.7 1.2-1.1 2.1-1.1.8 0 1.4.3 2 .8.5.6.8 1.3.8 2.1s-.3 1.5-.8 2.1c-.5.6-1.2.8-2 .8-.9 0-1.6-.3-2.1-1v3.3h-1.1v-8zm1 2.8c0 .6.2 1.1.6 1.4.4.4.8.6 1.4.6.5 0 1-.2 1.4-.6s.5-.9.5-1.4-.2-1-.5-1.4c-.4-.4-.8-.6-1.4-.6s-1 .2-1.4.6c-.4.4-.6.8-.6 1.4zm6.7-2.1c.6-.6 1.3-.8 2.2-.8.8 0 1.5.3 2.1.8.5.5.8 1.2.8 2v.5h-4.8c.1.5.3.9.6 1.3.4.3.8.5 1.3.5.4 0 .7-.1 1-.3.3-.2.6-.4.7-.7l.8.4c-.2.4-.5.8-1 1-.5.3-1 .4-1.6.4-.9 0-1.6-.3-2.2-.8-.6-.6-.8-1.3-.8-2.1.1-1 .4-1.7.9-2.2zm.2 1.7h3.8c-.1-.5-.3-.9-.6-1.2-.3-.3-.8-.5-1.3-.5s-.9.2-1.3.5c-.3.3-.5.7-.6 1.2zm1.4-3.2l.6-1.7h1.3l-.8 1.7h-1.1zm4.8 6.4v-5.7h1v.9c.4-.6 1-1 1.8-1 .2 0 .5 0 .7.1v1c-.3-.1-.5-.1-.8-.1-.5 0-.9.2-1.2.5-.3.3-.5.8-.5 1.3v3h-1zm4.4-7.2c0-.2.1-.4.2-.5.1-.1.3-.2.5-.2s.4.1.5.2c.1.1.2.3.2.5s-.1.4-.2.5c-.1.1-.3.2-.5.2s-.4-.1-.5-.2c-.1-.2-.2-.3-.2-.5zm.2 7.2v-5.7h1.1v5.7h-1.1zm3.2-4.9c.6-.6 1.3-.8 2.2-.8.8 0 1.5.3 2.1.8.5.5.8 1.2.8 2v.5h-4.8c.1.5.3.9.6 1.3.4.3.8.5 1.3.5.4 0 .7-.1 1-.3.3-.2.6-.4.7-.7l.8.4c-.2.4-.5.8-1 1-.5.3-1 .4-1.6.4-.9 0-1.6-.3-2.2-.8-.6-.6-.8-1.3-.8-2.1.1-1 .4-1.7.9-2.2zm.2 1.7h3.8c-.1-.5-.3-.9-.6-1.2-.3-.3-.8-.5-1.3-.5s-.9.2-1.3.5c-.3.3-.5.7-.6 1.2zm6.1-2.4h1.1v3.2c0 .5.1.9.4 1.2s.6.5 1.1.5c.5 0 .9-.2 1.2-.5.3-.4.5-.8.5-1.4v-3h1.1V58h-1v-1c-.5.7-1.2 1.1-2.1 1.1-.7 0-1.2-.2-1.6-.7-.4-.5-.6-1.1-.6-1.8v-3.3zm7.1 5.6v-5.7h1v.9c.4-.6 1-1 1.8-1 .2 0 .5 0 .7.1v1c-.3-.1-.5-.1-.8-.1-.5 0-.9.2-1.2.5-.3.3-.5.8-.5 1.3v3h-1zm4.8-4.9c.6-.6 1.3-.8 2.2-.8.8 0 1.5.3 2.1.8.5.5.8 1.2.8 2v.5h-4.8c.1.5.3.9.6 1.3.4.3.8.5 1.3.5.4 0 .7-.1 1-.3.3-.2.6-.4.7-.7l.8.4c-.2.4-.5.8-1 1-.5.3-1 .4-1.6.4-.9 0-1.6-.3-2.2-.8-.6-.6-.8-1.3-.8-2.1.1-1 .4-1.7.9-2.2zm.2 1.7h3.8c-.1-.5-.3-.9-.6-1.2-.3-.3-.8-.5-1.3-.5s-.9.2-1.3.5c-.3.3-.5.7-.6 1.2zM0 62.8h.9l2.7 6.9 2.7-6.9h.9L4 70.6H3l-3-7.8zm8.3.2c.1-.1.3-.2.4-.2.2 0 .3.1.5.2.1.1.2.3.2.4 0 .2-.1.3-.2.4-.1.1-.3.2-.5.2s-.3-.1-.5-.2c-.1-.1-.2-.3-.2-.5.1 0 .2-.1.3-.3zm0 2h.9v5.6h-.9V65zm3.6-2.6v8.2H11v-8.2h.9zm2.7 0v8.2h-.9v-8.2h.9zm2.2 3.3c.6-.5 1.3-.8 2.1-.8s1.5.3 2 .8.8 1.2.8 2v.4h-4.9c.1.6.3 1 .7 1.4.4.4.9.5 1.4.5.4 0 .8-.1 1.1-.3.3-.2.6-.5.8-.8l.7.3c-.2.4-.5.8-1 1-.5.3-1 .4-1.6.4-.9 0-1.6-.3-2.1-.8-.5-.6-.8-1.3-.8-2.1 0-.7.2-1.4.8-2zm0 1.8h4.1c0-.5-.3-1-.6-1.4-.4-.4-.8-.5-1.4-.5-.5 0-1 .2-1.4.5-.4.4-.6.8-.7 1.4zm9.3-1.8c.5-.6 1.2-.8 2-.8.9 0 1.7.4 2.2 1.1v-3.6h.9v8.2h-.8v-1.1c-.5.8-1.3 1.2-2.2 1.2-.8 0-1.4-.3-1.9-.8-.5-.6-.8-1.3-.8-2.1-.2-.8.1-1.5.6-2.1zm.7 3.7c.4.4.9.6 1.4.6.6 0 1.1-.2 1.5-.6s.6-.9.6-1.5-.2-1.1-.6-1.5c-.4-.4-.9-.6-1.5-.6s-1 .2-1.4.6c-.4.4-.6.9-.6 1.5 0 .5.2 1.1.6 1.5zm6.5-3.7c.6-.5 1.3-.8 2.1-.8s1.5.3 2 .8.8 1.2.8 2v.4h-4.9c.1.6.3 1 .7 1.4.4.4.9.5 1.4.5.4 0 .8-.1 1.1-.3.3-.2.6-.5.8-.8l.7.3c-.2.4-.5.8-1 1-.5.3-1 .4-1.6.4-.9 0-1.6-.3-2.1-.8-.5-.6-.8-1.3-.8-2.1 0-.7.3-1.4.8-2zm0 1.8h4.1c0-.5-.3-1-.6-1.4-.4-.4-.8-.5-1.4-.5-.5 0-1 .2-1.4.5-.4.4-.6.8-.7 1.4zm8.2-4.7h.9l1.9 6.7 2.1-6.7h.8l2.1 6.7 1.9-6.7h.8l-2.4 7.8h-.9l-2-6.6-2 6.6h-.9l-2.3-7.8zm11.8 2.9c.5-.6 1.2-.8 2-.8.5 0 .9.1 1.3.3.4.2.7.5.9.9V65h.8v5.6h-.8v-1.1c-.5.8-1.3 1.2-2.2 1.2-.8 0-1.4-.3-2-.8-.5-.6-.8-1.3-.8-2.1s.2-1.5.8-2.1zm.6 3.7c.4.4.9.6 1.5.6s1.1-.2 1.5-.6c.4-.4.6-.9.6-1.6 0-.6-.2-1.1-.6-1.5-.4-.4-.9-.6-1.5-.6s-1.1.2-1.5.6c-.4.4-.6.9-.6 1.5s.2 1.2.6 1.6zm6.4-4.4l2 4.6 2-4.6h.9l-2.5 5.6h-.9L59.4 65h.9zm6.1 5.6V65h.8v.9c.4-.7 1-1 1.8-1 .2 0 .5 0 .7.1v.8c-.2-.1-.5-.1-.8-.1-.5 0-.9.2-1.2.5-.3.3-.5.8-.5 1.4v3h-.8zm4.7-4.9c.6-.5 1.3-.8 2.1-.8s1.5.3 2 .8.8 1.2.8 2v.4h-4.9c.1.6.3 1 .7 1.4.4.4.9.5 1.4.5.4 0 .8-.1 1.1-.3.3-.2.6-.5.8-.8l.7.3c-.2.4-.5.8-1 1-.5.3-1 .4-1.6.4-.9 0-1.6-.3-2.1-.8-.5-.6-.8-1.3-.8-2.1 0-.7.3-1.4.8-2zm0 1.8h4.1c0-.5-.3-1-.6-1.4-.4-.4-.8-.5-1.4-.5-.5 0-1 .2-1.4.5-.4.4-.6.8-.7 1.4zm29.7-40.7c4 3.2 8.9 4.7 14.7 4.7 1.8 0 3.2-.3 4.2-.9 1-.6 1.5-1.5 1.5-2.6 0-1.4-1.1-2.5-3.4-3-.7-.2-2-.4-4.1-.8-1.6-.3-3-.5-4.1-.7-1.1-.2-2.4-.6-4-1.2s-2.8-1.3-3.8-2.1c-.9-.8-1.8-1.8-2.5-3.2-.7-1.4-1.1-2.9-1.1-4.7 0-4 1.5-7.1 4.6-9.2s7.1-3.2 12.3-3.2c5.8 0 11.1 1.3 15.6 4l-4.1 7.8c-3.7-2.1-7.7-3.2-12.2-3.2-3.9 0-5.8 1.1-5.8 3.2 0 .5.1.9.4 1.3.3.4.5.7.9.9.3.2.8.4 1.5.6.7.2 1.3.3 1.7.4.5.1 1.1.2 2 .4 4.7.8 7.9 1.6 9.7 2.5 4.4 1.9 6.6 5.1 6.7 9.5 0 4.1-1.5 7.3-4.6 9.6-3.1 2.3-7.4 3.4-12.8 3.4-3.4 0-6.7-.5-9.8-1.6-3.1-1.1-5.8-2.4-7.9-4l4.4-7.9zM.8 39.7V.7H11v39H.8zM18.4.7h27.8v8.8H28.5v7.1h16.1v8.7H28.5v14.5H18.4V.7zm39.3 5.1C61.5 1.9 66.4 0 72.3 0S83 1.9 86.9 5.8c3.9 3.9 5.8 8.7 5.8 14.5 0 5.8-1.9 10.6-5.8 14.4-3.9 3.9-8.8 5.8-14.7 5.8-5.9 0-10.7-1.9-14.6-5.7-3.9-3.8-5.8-8.6-5.8-14.4.1-5.9 2-10.8 5.9-14.6zm4.1 14.5c0 3.1 1 5.7 3 7.7 2 2.1 4.5 3.1 7.5 3.1s5.5-1 7.5-3.1 3-4.7 3-7.7c0-3.1-1-5.7-3-7.7-2-2.1-4.5-3.1-7.5-3.1s-5.4 1-7.5 3.1c-2 2-3 4.6-3 7.7zM139.6.7h10.2v22.7c0 2.1.6 3.8 1.9 5.1 1.3 1.3 3 2 5.2 2 2.1 0 3.9-.7 5.2-2 1.3-1.4 2-3.1 2-5.1V.7h10.2v23.5c0 4.8-1.6 8.7-4.8 11.7-3.2 3-7.4 4.5-12.5 4.5s-9.2-1.5-12.4-4.5c-3.2-3-4.8-6.9-4.8-11.7V.7zm60.7 0c4.3 0 7.9 1.3 10.6 4s4.1 6.2 4.1 10.4c0 4.4-1.4 7.9-4.2 10.6-2.8 2.6-6.5 4-11.2 4h-8v10h-10.2V.7h18.9zM198.7 21c1.8 0 3.2-.5 4.4-1.6 1.1-1.1 1.7-2.5 1.7-4.1 0-1.7-.5-3.1-1.6-4.2s-2.5-1.7-4.3-1.7h-7.2V21h7zm50.6-3.1l.7-.6v22.4h10.2V.7h-40.8v10.2h22.5l-.8.7-20.8 18.8 6.8 7.6z" fill="#1e2d55"/></svg>